<?xml version="1.0" encoding="UTF-8"?>
<!DOCTYPE svg PUBLIC "-//W3C//DTD SVG 1.1//EN" "http://www.w3.org/Graphics/SVG/1.1/DTD/svg11.dtd">
<!-- Creator: CorelDRAW X6 -->
<svg xmlns="http://www.w3.org/2000/svg" xml:space="preserve" width="100%" height="100%" version="1.1" style="shape-rendering:geometricPrecision; text-rendering:geometricPrecision; image-rendering:optimizeQuality; fill-rule:evenodd; clip-rule:evenodd"
viewBox="0 0 500 500"
 xmlns:xlink="http://www.w3.org/1999/xlink">
 <defs>
  <style type="text/css">
   <![CDATA[
    .fil1 {fill:#707070}
    .fil3 {fill:#FFB92E}
    .fil2 {fill:#FFC95D}
    .fil4 {fill:#FFF0D1}
    .fil5 {fill:#FFF7E8}
   ]]>
  </style>
 </defs>
 <g id="Layer_x0020_1">
  <metadata id="CorelCorpID_0Corel-Layer"/>
  <path class="fil1" d="M204 449c-1,-1 -1,-3 4,-3l84 0c5,0 5,2 4,3 -4,9 -10,17 -18,23 -8,5 -18,8 -28,8 -10,0 -20,-3 -28,-8 -8,-6 -14,-14 -18,-23z"/>
  <path class="fil1" d="M304 380c6,0 11,4 11,10 0,6 -5,11 -11,11l-108 0c-6,0 -11,-5 -11,-11 0,-6 5,-10 11,-10l108 0z"/>
  <path class="fil1" d="M295 412c6,0 11,5 11,11 0,6 -5,11 -11,11l-90 0c-6,0 -11,-5 -11,-11 0,-6 5,-11 11,-11l90 0z"/>
  <path class="fil2" d="M250 20c-76,0 -138,62 -138,138 0,112 73,71 73,196 0,9 7,16 16,16l49 0 0 -350z"/>
  <path class="fil3" d="M250 370l49 0c9,0 16,-7 16,-16 0,-125 73,-84 73,-196 0,-76 -62,-138 -138,-138l0 350z"/>
  <path class="fil4" d="M280 77c-5,-2 -9,-8 -7,-14 2,-5 8,-9 14,-7 18,6 33,16 44,30 12,14 20,31 22,49 1,6 -3,12 -9,12 -6,1 -11,-3 -12,-9 -2,-14 -8,-27 -17,-38 -9,-11 -21,-19 -35,-23z"/>
  <path class="fil5" d="M250 168c12,0 22,10 22,22 0,8 -5,15 -11,19l0 161 -22 0 0 -161c-6,-4 -11,-11 -11,-19 0,-12 10,-22 22,-22z"/>
 </g>
</svg>
